<svg xmlns="http://www.w3.org/2000/svg" width="600" height="200" viewBox="0 0 600 200"><rect width="100%" height="100%" fill="#333652"/><path fill="#F7F7F2" d="M205.455 63.45h10.85l-29.2 72.3h-12.15l-29.21-72.3h10.81q1.75 0 2.85.85 1.09.85 1.65 2.2l17.05 44.1q.85 2.15 1.62 4.72.78 2.58 1.48 5.38.6-2.8 1.3-5.38.7-2.57 1.55-4.72l16.95-44.1q.4-1.15 1.57-2.1 1.18-.95 2.88-.95m26.15 40.75h23.3q0-2.4-.68-4.53-.67-2.12-2.02-3.72t-3.43-2.53q-2.07-.92-4.82-.92-5.35 0-8.43 3.05-3.07 3.05-3.92 8.65m31.5 7.45h-31.75q.3 3.95 1.4 6.82 1.1 2.88 2.9 4.75 1.8 1.88 4.27 2.8 2.48.93 5.48.93t5.17-.7q2.18-.7 3.8-1.55 1.63-.85 2.85-1.55 1.23-.7 2.38-.7 1.55 0 2.3 1.15l3.55 4.5q-2.05 2.4-4.6 4.02-2.55 1.63-5.33 2.6-2.77.98-5.65 1.38-2.87.4-5.57.4-5.35 0-9.95-1.78-4.6-1.77-8-5.25-3.4-3.47-5.35-8.6-1.95-5.12-1.95-11.87 0-5.25 1.7-9.88 1.7-4.62 4.87-8.05 3.18-3.42 7.75-5.42 4.58-2 10.33-2 4.85 0 8.95 1.55t7.05 4.52q2.95 2.98 4.62 7.3 1.68 4.33 1.68 9.88 0 2.8-.6 3.77-.6.98-2.3.98m22.85-24.95.85 4.05q1.55-1.55 3.27-2.88 1.73-1.32 3.65-2.25 1.93-.92 4.13-1.45 2.2-.52 4.8-.52 4.2 0 7.45 1.42 3.25 1.43 5.42 4 2.18 2.58 3.3 6.15 1.13 3.58 1.13 7.88v32.65h-12.35V103.1q0-4.7-2.15-7.28-2.15-2.57-6.55-2.57-3.2 0-6 1.45t-5.3 3.95v37.1h-12.35v-51.3h7.55q2.4 0 3.15 2.25m62.8 49.85q-6.7 0-10.28-3.78-3.57-3.77-3.57-10.42V93.7h-5.25q-1 0-1.7-.65t-.7-1.95v-4.9l8.25-1.35 2.6-14q.25-1 .95-1.55t1.8-.55h6.4V84.9h13.7v8.8h-13.7v27.8q0 2.4 1.17 3.75 1.18 1.35 3.23 1.35 1.15 0 1.92-.28.78-.27 1.35-.57.58-.3 1.03-.58.45-.27.9-.27.55 0 .9.27.35.28.75.83l3.7 6q-2.7 2.25-6.2 3.4t-7.25 1.15m47.2-14.05v-8.65q-5.35.25-9 .92-3.65.68-5.85 1.73t-3.15 2.45-.95 3.05q0 3.25 1.92 4.65 1.93 1.4 5.03 1.4 3.8 0 6.57-1.38 2.78-1.37 5.43-4.17m-26.1-26.95-2.2-3.95q8.85-8.1 21.3-8.1 4.5 0 8.05 1.47 3.55 1.48 6 4.1 2.45 2.63 3.72 6.28 1.28 3.65 1.28 8v32.4h-5.6q-1.75 0-2.7-.53-.95-.52-1.5-2.12l-1.1-3.7q-1.95 1.75-3.8 3.07-1.85 1.33-3.85 2.23t-4.28 1.38q-2.27.47-5.02.47-3.25 0-6-.88-2.75-.87-4.75-2.62t-3.1-4.35-1.1-6.05q0-1.95.65-3.88.65-1.92 2.12-3.67 1.48-1.75 3.83-3.3t5.77-2.7q3.43-1.15 7.98-1.88 4.55-.72 10.4-.87v-3q0-5.15-2.2-7.63-2.2-2.47-6.35-2.47-3 0-4.98.7-1.97.7-3.47 1.57-1.5.88-2.73 1.58-1.22.7-2.72.7-1.3 0-2.2-.68-.9-.67-1.45-1.57m83.85-5.55-2.8 4.45q-.5.8-1.05 1.12-.55.33-1.4.33-.9 0-1.93-.5-1.02-.5-2.37-1.13-1.35-.62-3.08-1.12-1.72-.5-4.07-.5-3.65 0-5.73 1.55-2.07 1.55-2.07 4.05 0 1.65 1.07 2.77 1.08 1.13 2.85 1.98 1.78.85 4.03 1.52 2.25.68 4.57 1.48 2.33.8 4.58 1.82 2.25 1.03 4.02 2.6 1.78 1.58 2.85 3.78 1.08 2.2 1.08 5.3 0 3.7-1.33 6.82-1.32 3.13-3.92 5.4-2.6 2.28-6.43 3.55-3.82 1.28-8.82 1.28-2.65 0-5.18-.47-2.52-.48-4.85-1.33-2.32-.85-4.3-2-1.97-1.15-3.47-2.5l2.85-4.7q.55-.85 1.3-1.3t1.9-.45 2.17.65q1.03.65 2.38 1.4t3.17 1.4q1.83.65 4.63.65 2.2 0 3.77-.53 1.58-.52 2.6-1.37 1.03-.85 1.5-1.98.48-1.12.48-2.32 0-1.8-1.08-2.95-1.07-1.15-2.85-2-1.77-.85-4.05-1.53-2.27-.67-4.65-1.47-2.37-.8-4.65-1.88-2.27-1.07-4.05-2.72-1.77-1.65-2.85-4.05-1.07-2.4-1.07-5.8 0-3.15 1.25-6t3.67-4.98q2.43-2.12 6.05-3.4 3.63-1.27 8.38-1.27 5.3 0 9.65 1.75t7.25 4.6"/></svg>