<svg xmlns="http://www.w3.org/2000/svg" width="600" height="200" viewBox="0 0 600 200"><rect width="100%" height="100%" fill="#3772ff"/><path fill="#F7F7F2" d="M134.755 71.855v57.12h-10.67v-57.12zm19.67 18.37.67 3.2q1.23-1.22 2.59-2.27t2.88-1.78 3.26-1.14q1.74-.42 3.79-.42 3.32 0 5.89 1.13 2.57 1.12 4.28 3.16 1.72 2.03 2.61 4.86.89 2.82.89 6.22v25.79h-9.76v-25.79q0-3.72-1.7-5.75-1.69-2.04-5.17-2.04-2.53 0-4.74 1.15t-4.19 3.12v29.31h-9.75v-40.53h5.96q1.9 0 2.49 1.78m64.94-1.78h7.7l-16.08 40.53h-8.84l-16.08-40.53h8.06q1.1 0 1.83.52.73.51.97 1.3l7.82 21.65q.63 1.89 1.11 3.71.47 1.82.83 3.63.39-1.81.87-3.63.47-1.82 1.14-3.71l7.98-21.65q.28-.79.99-1.3.71-.52 1.7-.52m20.58 15.61h18.4q0-1.9-.53-3.58t-1.6-2.94q-1.07-1.27-2.7-2-1.64-.73-3.82-.73-4.22 0-6.65 2.41t-3.1 6.84m24.88 5.88h-25.08q.24 3.12 1.11 5.39.86 2.27 2.29 3.76 1.42 1.48 3.37 2.21 1.96.73 4.33.73t4.09-.55q1.72-.56 3-1.23t2.25-1.22q.97-.56 1.88-.56 1.22 0 1.81.91l2.81 3.56q-1.62 1.89-3.64 3.18-2.01 1.28-4.2 2.05t-4.47 1.09q-2.27.31-4.4.31-4.23 0-7.86-1.4t-6.32-4.15q-2.69-2.74-4.23-6.79t-1.54-9.38q0-4.15 1.35-7.8 1.34-3.66 3.85-6.36 2.5-2.71 6.12-4.29 3.61-1.58 8.16-1.58 3.83 0 7.07 1.23 3.24 1.22 5.57 3.57t3.65 5.77q1.32 3.41 1.32 7.8 0 2.21-.47 2.98-.48.77-1.82.77m18.05-19.71.67 3.2q1.23-1.22 2.59-2.27t2.89-1.78q1.52-.73 3.25-1.14 1.74-.42 3.8-.42 3.31 0 5.88 1.13 2.57 1.12 4.29 3.16 1.72 2.03 2.6 4.86.89 2.82.89 6.22v25.79h-9.75v-25.79q0-3.72-1.7-5.75-1.7-2.04-5.18-2.04-2.52 0-4.74 1.15-2.21 1.15-4.18 3.12v29.31h-9.76v-40.53h5.96q1.9 0 2.49 1.78m49.62 39.38q-5.3 0-8.12-2.98-2.83-2.98-2.83-8.24v-22.63h-4.14q-.79 0-1.35-.51-.55-.52-.55-1.54v-3.87l6.52-1.07 2.05-11.06q.2-.79.75-1.23.56-.43 1.42-.43h5.06v12.76h10.82v6.95h-10.82v21.96q0 1.9.93 2.97.93 1.06 2.55 1.06.9 0 1.52-.22.61-.21 1.06-.45.46-.24.81-.45.36-.22.71-.22.44 0 .72.22.27.21.59.65l2.92 4.74q-2.13 1.77-4.9 2.68-2.76.91-5.72.91m37.28-11.1v-6.83q-4.22.2-7.11.73-2.88.53-4.62 1.36t-2.49 1.94q-.75 1.1-.75 2.41 0 2.57 1.52 3.67 1.52 1.11 3.97 1.11 3.01 0 5.2-1.09t4.28-3.3m-20.62-21.29-1.73-3.12q6.99-6.4 16.82-6.4 3.56 0 6.36 1.17 2.81 1.16 4.74 3.24 1.94 2.07 2.95 4.95 1 2.89 1 6.32v25.6h-4.42q-1.38 0-2.13-.41-.75-.42-1.19-1.68l-.87-2.93q-1.54 1.39-3 2.43-1.46 1.05-3.04 1.76t-3.38 1.09q-1.8.37-3.97.37-2.57 0-4.74-.69t-3.75-2.07q-1.58-1.39-2.45-3.44t-.87-4.78q0-1.54.51-3.06.52-1.52 1.68-2.9 1.17-1.39 3.02-2.61 1.86-1.22 4.57-2.13 2.7-.91 6.3-1.48 3.59-.58 8.21-.7v-2.37q0-4.06-1.73-6.02-1.74-1.96-5.02-1.96-2.37 0-3.93.56-1.56.55-2.75 1.24-1.18.69-2.15 1.25-.97.55-2.15.55-1.03 0-1.74-.53-.71-.54-1.15-1.25m47.92-6.32.59 4.58q1.9-3.63 4.5-5.7 2.61-2.08 6.17-2.08 2.8 0 4.5 1.23l-.63 7.3q-.2.72-.58 1.01-.37.3-1 .3-.6 0-1.76-.2-1.17-.2-2.27-.2-1.62 0-2.89.48-1.26.47-2.27 1.36-1 .89-1.77 2.15-.78 1.27-1.45 2.89v24.96h-9.75v-40.53h5.72q1.51 0 2.1.54.59.53.79 1.91m21.17-2.45h9.8v40.53h-9.8zm11.14-11.81q0 1.27-.51 2.37-.52 1.11-1.37 1.94t-1.99 1.32q-1.15.49-2.45.49-1.27 0-2.39-.49-1.13-.49-1.96-1.32t-1.32-1.94q-.49-1.1-.49-2.37 0-1.3.49-2.45.49-1.14 1.32-1.97t1.96-1.32q1.12-.5 2.39-.5 1.3 0 2.45.5 1.14.49 1.99 1.32t1.37 1.97q.51 1.15.51 2.45m26.54 11.18q4.51 0 8.2 1.46t6.32 4.15 4.05 6.56 1.42 8.65q0 4.82-1.42 8.69t-4.05 6.59q-2.63 2.73-6.32 4.19t-8.2 1.46q-4.54 0-8.25-1.46-3.72-1.46-6.34-4.19-2.63-2.72-4.07-6.59t-1.44-8.69q0-4.78 1.44-8.65t4.07-6.56q2.62-2.69 6.34-4.15 3.71-1.46 8.25-1.46m0 34.25q5.06 0 7.49-3.4t2.43-9.95q0-6.56-2.43-10-2.43-3.43-7.49-3.43-5.13 0-7.6 3.45-2.47 3.46-2.47 9.98 0 6.51 2.47 9.93t7.6 3.42"/></svg>