<svg xmlns="http://www.w3.org/2000/svg" width="600" height="200" viewBox="0 0 600 200"><rect width="100%" height="100%" fill="#fc7a1e"/><path fill="#333652" d="M176.995 119.7q1.1 0 1.95.85l5.3 5.75q-4.4 5.45-10.82 8.35-6.43 2.9-15.43 2.9-8.05 0-14.47-2.75-6.43-2.75-10.98-7.65t-6.97-11.7q-2.43-6.8-2.43-14.85 0-8.15 2.6-14.93 2.6-6.77 7.33-11.67 4.72-4.9 11.27-7.63 6.55-2.72 14.5-2.72 7.9 0 14.03 2.6 6.12 2.6 10.42 6.8l-4.5 6.25q-.4.6-1.02 1.05-.63.45-1.73.45-.75 0-1.55-.43-.8-.42-1.75-1.05-.95-.62-2.2-1.37t-2.9-1.38q-1.65-.62-3.82-1.05-2.18-.42-5.03-.42-4.85 0-8.87 1.72-4.03 1.73-6.93 5-2.9 3.28-4.5 8-1.6 4.73-1.6 10.78 0 6.1 1.73 10.85 1.72 4.75 4.67 8t6.95 4.97q4 1.73 8.6 1.73 2.75 0 4.98-.3 2.22-.3 4.1-.95 1.87-.65 3.55-1.68 1.67-1.02 3.32-2.52.5-.45 1.05-.73.55-.27 1.15-.27m14.7-57.25h12.35v74.3h-12.35zm25.1 23h12.4v51.3h-12.4zm14.1-14.95q0 1.6-.65 3t-1.72 2.45q-1.08 1.05-2.53 1.67-1.45.63-3.1.63-1.6 0-3.02-.63-1.43-.62-2.48-1.67t-1.67-2.45q-.63-1.4-.63-3 0-1.65.63-3.1.62-1.45 1.67-2.5t2.48-1.68q1.42-.62 3.02-.62 1.65 0 3.1.62 1.45.63 2.53 1.68 1.07 1.05 1.72 2.5t.65 3.1m20.65 34.7h23.3q0-2.4-.67-4.53-.68-2.12-2.03-3.72t-3.42-2.53q-2.08-.92-4.83-.92-5.35 0-8.42 3.05-3.08 3.05-3.93 8.65m31.5 7.45h-31.75q.3 3.95 1.4 6.82 1.1 2.88 2.9 4.75 1.8 1.88 4.28 2.8 2.47.93 5.47.93t5.18-.7q2.17-.7 3.8-1.55 1.62-.85 2.85-1.55 1.22-.7 2.37-.7 1.55 0 2.3 1.15l3.55 4.5q-2.05 2.4-4.6 4.02-2.55 1.63-5.32 2.6-2.78.98-5.65 1.38-2.88.4-5.58.4-5.35 0-9.95-1.78-4.6-1.77-8-5.25-3.4-3.47-5.35-8.6-1.95-5.12-1.95-11.87 0-5.25 1.7-9.88 1.7-4.62 4.88-8.05 3.17-3.42 7.75-5.42 4.57-2 10.32-2 4.85 0 8.95 1.55t7.05 4.52q2.95 2.98 4.63 7.3 1.67 4.33 1.67 9.88 0 2.8-.6 3.77-.6.98-2.3.98m22.85-24.95.85 4.05q1.55-1.55 3.28-2.88 1.72-1.32 3.65-2.25 1.92-.92 4.12-1.45 2.2-.52 4.8-.52 4.2 0 7.45 1.42 3.25 1.43 5.43 4 2.17 2.58 3.3 6.15 1.12 3.58 1.12 7.88v32.65h-12.35V104.1q0-4.7-2.15-7.28-2.15-2.57-6.55-2.57-3.2 0-6 1.45t-5.3 3.95v37.1h-12.35v-51.3h7.55q2.4 0 3.15 2.25m62.8 49.85q-6.7 0-10.27-3.78-3.58-3.77-3.58-10.42V94.7h-5.25q-1 0-1.7-.65t-.7-1.95v-4.9l8.25-1.35 2.6-14q.25-1 .95-1.55t1.8-.55h6.4V85.9h13.7v8.8h-13.7v27.8q0 2.4 1.18 3.75 1.17 1.35 3.22 1.35 1.15 0 1.93-.28.77-.27 1.35-.57.57-.3 1.02-.58.45-.27.9-.27.55 0 .9.27.36.28.75.83l3.7 6q-2.7 2.25-6.2 3.4t-7.25 1.15m29.86-32.35h23.29q0-2.4-.67-4.53-.68-2.12-2.03-3.72-1.34-1.6-3.42-2.53-2.08-.92-4.83-.92-5.34 0-8.42 3.05t-3.92 8.65m31.5 7.45h-31.75q.29 3.95 1.39 6.82 1.11 2.88 2.9 4.75 1.8 1.88 4.28 2.8 2.47.93 5.47.93t5.18-.7q2.17-.7 3.8-1.55 1.62-.85 2.85-1.55 1.22-.7 2.38-.7 1.55 0 2.3 1.15l3.54 4.5q-2.04 2.4-4.59 4.02-2.56 1.63-5.33 2.6-2.78.98-5.65 1.38-2.88.4-5.58.4-5.35 0-9.94-1.78-4.61-1.77-8-5.25-3.41-3.47-5.36-8.6-1.95-5.12-1.95-11.87 0-5.25 1.7-9.88 1.7-4.62 4.88-8.05 3.17-3.42 7.75-5.42 4.57-2 10.32-2 4.85 0 8.95 1.55t7.05 4.52q2.96 2.98 4.63 7.3 1.67 4.33 1.67 9.88 0 2.8-.59 3.77-.61.98-2.3.98M476.305 91l-2.8 4.45q-.5.8-1.05 1.12-.55.33-1.4.33-.9 0-1.93-.5-1.02-.5-2.37-1.13-1.35-.62-3.08-1.12-1.72-.5-4.07-.5-3.65 0-5.73 1.55-2.07 1.55-2.07 4.05 0 1.65 1.07 2.77 1.08 1.13 2.85 1.98 1.78.85 4.03 1.52 2.25.68 4.57 1.48 2.33.8 4.58 1.82 2.25 1.03 4.02 2.6 1.78 1.58 2.85 3.78 1.08 2.2 1.08 5.3 0 3.7-1.33 6.82-1.32 3.13-3.92 5.4-2.6 2.28-6.43 3.55-3.82 1.28-8.82 1.28-2.65 0-5.18-.47-2.52-.48-4.85-1.33-2.32-.85-4.3-2-1.97-1.15-3.47-2.5l2.85-4.7q.55-.85 1.3-1.3t1.9-.45 2.17.65q1.03.65 2.38 1.4t3.17 1.4q1.83.65 4.63.65 2.2 0 3.77-.53 1.58-.52 2.6-1.37 1.03-.85 1.5-1.98.48-1.12.48-2.32 0-1.8-1.08-2.95-1.07-1.15-2.85-2-1.77-.85-4.05-1.53-2.27-.67-4.65-1.47-2.37-.8-4.65-1.88-2.27-1.07-4.05-2.72-1.77-1.65-2.85-4.05-1.07-2.4-1.07-5.8 0-3.15 1.25-6t3.67-4.98q2.43-2.12 6.05-3.4 3.63-1.27 8.38-1.27 5.3 0 9.65 1.75t7.25 4.6"/></svg>