<svg xmlns="http://www.w3.org/2000/svg" width="1000" height="400" viewBox="0 0 1000 400"><rect width="100%" height="100%" fill="#f7f7f2"/><path fill="#3772ff" d="m304.65 142.5-6.7 12.7q-1.2 2.1-2.55 3.05t-3.35.95q-2.1 0-4.55-1.55t-5.85-3.45-7.95-3.45-10.75-1.55q-5.6 0-9.8 1.35t-7.05 3.75-4.25 5.75-1.4 7.35q0 5.1 2.85 8.5t7.55 5.8 10.7 4.3 12.3 4.05 12.3 5 10.7 7.2 7.55 10.65 2.85 15.3q0 9.8-3.35 18.35t-9.8 14.9-15.75 10-21.3 3.65q-6.9 0-13.6-1.35t-12.85-3.85-11.55-6-9.6-7.8l7.9-12.9q1-1.4 2.6-2.35t3.4-.95q2.5 0 5.4 2.05t6.9 4.55 9.35 4.55 12.85 2.05q11.5 0 17.8-5.45t6.3-15.65q0-5.7-2.85-9.3t-7.55-6.05-10.7-4.15-12.2-3.7-12.2-4.8-10.7-7.3-7.55-11.25-2.85-16.65q0-7.9 3.15-15.4t9.15-13.3 14.8-9.3 20.2-3.5q12.8 0 23.6 4t18.4 11.2m22.4-17.6h24.7v148.6h-24.7zm50.2 46h24.8v102.6h-24.8zm28.2-29.9q0 3.2-1.3 6t-3.45 4.9-5.05 3.35-6.2 1.25q-3.2 0-6.05-1.25t-4.95-3.35-3.35-4.9-1.25-6q0-3.3 1.25-6.2t3.35-5 4.95-3.35 6.05-1.25q3.3 0 6.2 1.25t5.05 3.35 3.45 5 1.3 6.2m86.2 102.1v-46q-4.2-5.1-9.15-7.2t-10.65-2.1q-5.6 0-10.1 2.1t-7.7 6.35-4.9 10.8-1.7 15.45q0 9 1.45 15.25t4.15 10.2 6.6 5.7 8.7 1.75q7.7 0 13.1-3.2t10.2-9.1m0-118.2h24.7v148.6h-15.1q-4.9 0-6.2-4.5l-2.1-9.9q-6.2 7.1-14.25 11.5t-18.75 4.4q-8.4 0-15.4-3.5t-12.05-10.15-7.8-16.45-2.75-22.4q0-11.4 3.1-21.2t8.9-17 13.9-11.25 18.2-4.05q8.6 0 14.7 2.7t10.9 7.3zm68.6 85.5h46.6q0-4.8-1.35-9.05t-4.05-7.45-6.85-5.05-9.65-1.85q-10.7 0-16.85 6.1t-7.85 17.3m63 14.9h-63.5q.6 7.9 2.8 13.65t5.8 9.5 8.55 5.6 10.95 1.85 10.35-1.4 7.6-3.1 5.7-3.1 4.75-1.4q3.1 0 4.6 2.3l7.1 9q-4.1 4.8-9.2 8.05t-10.65 5.2-11.3 2.75-11.15.8q-10.7 0-19.9-3.55t-16-10.5-10.7-17.2-3.9-23.75q0-10.5 3.4-19.75t9.75-16.1 15.5-10.85 20.65-4q9.7 0 17.9 3.1t14.1 9.05 9.25 14.6 3.35 19.75q0 5.6-1.2 7.55t-4.6 1.95m84.5-53.8-13-2.3q1.5-10.4 5.8-18.25t10.75-13.1 14.8-7.9 17.95-2.65q10 0 18.05 2.85t13.75 7.9 8.75 11.85 3.05 14.7q0 6.9-1.55 12.15t-4.45 9.15-7.2 6.6-9.7 4.5q13 4.1 19.4 12.5t6.4 21.1q0 10.8-4 19.1t-10.8 13.95T760 272.2t-18.95 2.9q-10.9 0-19-2.5t-14.1-7.4-10.2-12-7.2-16.4l10.9-4.5q4.3-1.8 8.05-.95t5.45 4.05q1.8 3.5 3.95 6.9t5.15 6.05 7.05 4.3 9.65 1.65q6.3 0 11-2.05t7.85-5.35 4.7-7.35 1.55-8.15q0-5.2-1.1-9.45t-4.6-7.25-10.05-4.7-17.55-1.7v-17.6q9.1-.1 15.1-1.7t9.55-4.45 4.95-6.85 1.4-8.8q0-10.2-5.7-15.5t-15.2-5.3q-4.4 0-8.1 1.25t-6.65 3.5-4.95 5.25-3 6.6q-1.7 4.6-4.45 6.1t-7.75.7"/></svg>